{
  "accessors": [
    {
      "name": "Cube-Mesh_0_positions",
      "componentType": 5126,
      "count": 165,
      "min": [
        -1.759896993637085,
        -0.31270599365234375,
        -1.8322299718856812
      ],
      "max": [
        1.4235429763793945,
        1.370885968208313,
        1.7960439920425415
      ],
      "type": "VEC3",
      "bufferView": 0,
      "byteOffset": 0
    },
    {
      "name": "Cube-Mesh_0_normals",
      "componentType": 5126,
      "count": 165,
      "min": [
        -0.9992036819458008,
        -0.9986457228660583,
        -0.9883146286010742
      ],
      "max": [
        0.9933589696884155,
        0.9988348484039307,
        0.9914051294326782
      ],
      "type": "VEC3",
      "bufferView": 1,
      "byteOffset": 0
    },
    {
      "name": "Cube-Mesh_0_texcoords",
      "componentType": 5126,
      "count": 165,
      "min": [
        0,
        0.13378199934959412
      ],
      "max": [
        1,
        1
      ],
      "type": "VEC2",
      "bufferView": 2,
      "byteOffset": 0
    },
    {
      "name": "Cube-Mesh_0_indices",
      "componentType": 5123,
      "count": 576,
      "min": [
        0
      ],
      "max": [
        164
      ],
      "type": "SCALAR",
      "bufferView": 3,
      "byteOffset": 0
    }
  ],
  "asset": {
    "generator": "obj2gltf",
    "version": "2.0"
  },
  "buffers": [
    {
      "name": "rock",
      "byteLength": 6432,
      "uri": "rock.bin"
    }
  ],
  "bufferViews": [
    {
      "name": "bufferView_0",
      "buffer": 0,
      "byteLength": 1980,
      "byteOffset": 0,
      "byteStride": 12,
      "target": 34962
    },
    {
      "name": "bufferView_1",
      "buffer": 0,
      "byteLength": 1980,
      "byteOffset": 1980,
      "byteStride": 12,
      "target": 34962
    },
    {
      "name": "bufferView_2",
      "buffer": 0,
      "byteLength": 1320,
      "byteOffset": 3960,
      "byteStride": 8,
      "target": 34962
    },
    {
      "name": "bufferView_3",
      "buffer": 0,
      "byteLength": 1152,
      "byteOffset": 5280,
      "target": 34963
    }
  ],
  "images": [
    {
      "name": "rock",
      "uri": "rock.png"
    }
  ],
  "materials": [
    {
      "name": "Material",
      "pbrMetallicRoughness": {
        "baseColorFactor": [
          0.64,
          0.64,
          0.64,
          1
        ],
        "metallicFactor": 0,
        "roughnessFactor": 0.97844644921413
      },
      "normalTexture": {
        "index": 0
      },
      "emissiveFactor": [
        0,
        0,
        0
      ],
      "alphaMode": "OPAQUE",
      "doubleSided": false
    }
  ],
  "meshes": [
    {
      "name": "Cube-Mesh",
      "primitives": [
        {
          "attributes": {
            "POSITION": 0,
            "NORMAL": 1,
            "TEXCOORD_0": 2
          },
          "indices": 3,
          "material": 0,
          "mode": 4
        }
      ]
    }
  ],
  "nodes": [
    {
      "name": "Cube",
      "mesh": 0
    }
  ],
  "samplers": [
    {
      "wrapS": 10497,
      "wrapT": 10497
    }
  ],
  "scene": 0,
  "scenes": [
    {
      "nodes": [
        0
      ]
    }
  ],
  "textures": [
    {
      "name": "rock",
      "sampler": 0,
      "source": 0
    }
  ]
}
